<mxfile host="65bd71144e">
    <diagram id="FKCf_v4HF1M6jexk6ZoZ" name="Page-1">
        <mxGraphModel dx="684" dy="517" grid="1" gridSize="10" guides="1" tooltips="1" connect="1" arrows="1" fold="1" page="1" pageScale="1" pageWidth="700" pageHeight="400" math="0" shadow="0">
            <root>
                <mxCell id="0"/>
                <mxCell id="1" parent="0"/>
                <mxCell id="63" value="C" style="ellipse;whiteSpace=wrap;html=1;aspect=fixed;fontSize=10;" vertex="1" parent="1">
                    <mxGeometry x="142" y="264" width="20" height="20" as="geometry"/>
                </mxCell>
                <mxCell id="22" value="Base" style="rounded=0;whiteSpace=wrap;html=1;" vertex="1" parent="1">
                    <mxGeometry x="80" y="40" width="140" height="70" as="geometry"/>
                </mxCell>
                <mxCell id="30" value="J1" style="ellipse;whiteSpace=wrap;html=1;aspect=fixed;" vertex="1" parent="1">
                    <mxGeometry x="65" y="160" width="20" height="20" as="geometry"/>
                </mxCell>
                <mxCell id="31" value="J2" style="ellipse;whiteSpace=wrap;html=1;aspect=fixed;" vertex="1" parent="1">
                    <mxGeometry x="115" y="160" width="20" height="20" as="geometry"/>
                </mxCell>
                <mxCell id="32" value="J3" style="ellipse;whiteSpace=wrap;html=1;aspect=fixed;" vertex="1" parent="1">
                    <mxGeometry x="165" y="160" width="20" height="20" as="geometry"/>
                </mxCell>
                <mxCell id="33" value="J4" style="ellipse;whiteSpace=wrap;html=1;aspect=fixed;" vertex="1" parent="1">
                    <mxGeometry x="215" y="160" width="20" height="20" as="geometry"/>
                </mxCell>
                <mxCell id="34" value="J6" style="ellipse;whiteSpace=wrap;html=1;aspect=fixed;" vertex="1" parent="1">
                    <mxGeometry x="270" y="80" width="20" height="20" as="geometry"/>
                </mxCell>
                <mxCell id="35" value="J1" style="ellipse;whiteSpace=wrap;html=1;aspect=fixed;" vertex="1" parent="1">
                    <mxGeometry x="270" y="40" width="20" height="20" as="geometry"/>
                </mxCell>
                <mxCell id="39" value="&lt;font style=&quot;font-size: 10px&quot;&gt;Wheel1&lt;/font&gt;" style="rounded=0;whiteSpace=wrap;html=1;" vertex="1" parent="1">
                    <mxGeometry x="55" y="200" width="40" height="20" as="geometry"/>
                </mxCell>
                <mxCell id="40" value="&lt;span style=&quot;font-size: 10px&quot;&gt;Wheel2&lt;/span&gt;" style="rounded=0;whiteSpace=wrap;html=1;" vertex="1" parent="1">
                    <mxGeometry x="105" y="200" width="40" height="20" as="geometry"/>
                </mxCell>
                <mxCell id="41" value="&lt;span style=&quot;font-size: 10px&quot;&gt;Wheel3&lt;/span&gt;" style="rounded=0;whiteSpace=wrap;html=1;" vertex="1" parent="1">
                    <mxGeometry x="155" y="200" width="40" height="20" as="geometry"/>
                </mxCell>
                <mxCell id="42" value="&lt;span style=&quot;font-size: 10px&quot;&gt;Wheel4&lt;/span&gt;" style="rounded=0;whiteSpace=wrap;html=1;" vertex="1" parent="1">
                    <mxGeometry x="205" y="200" width="40" height="20" as="geometry"/>
                </mxCell>
                <mxCell id="43" value="" style="endArrow=none;html=1;exitX=0.5;exitY=0;exitDx=0;exitDy=0;entryX=0.5;entryY=1;entryDx=0;entryDy=0;" edge="1" parent="1" source="39" target="30">
                    <mxGeometry width="50" height="50" relative="1" as="geometry">
                        <mxPoint x="330" y="230" as="sourcePoint"/>
                        <mxPoint x="380" y="180" as="targetPoint"/>
                    </mxGeometry>
                </mxCell>
                <mxCell id="44" value="" style="endArrow=none;html=1;exitX=0.5;exitY=0;exitDx=0;exitDy=0;entryX=0.5;entryY=1;entryDx=0;entryDy=0;" edge="1" parent="1">
                    <mxGeometry width="50" height="50" relative="1" as="geometry">
                        <mxPoint x="124.83" y="200" as="sourcePoint"/>
                        <mxPoint x="124.83" y="180" as="targetPoint"/>
                    </mxGeometry>
                </mxCell>
                <mxCell id="45" value="" style="endArrow=none;html=1;exitX=0.5;exitY=0;exitDx=0;exitDy=0;entryX=0.5;entryY=1;entryDx=0;entryDy=0;" edge="1" parent="1">
                    <mxGeometry width="50" height="50" relative="1" as="geometry">
                        <mxPoint x="174.83000000000004" y="200" as="sourcePoint"/>
                        <mxPoint x="174.83000000000004" y="180" as="targetPoint"/>
                    </mxGeometry>
                </mxCell>
                <mxCell id="46" value="" style="endArrow=none;html=1;exitX=0.5;exitY=0;exitDx=0;exitDy=0;entryX=0.5;entryY=1;entryDx=0;entryDy=0;" edge="1" parent="1">
                    <mxGeometry width="50" height="50" relative="1" as="geometry">
                        <mxPoint x="224.83000000000004" y="200" as="sourcePoint"/>
                        <mxPoint x="224.83000000000004" y="180" as="targetPoint"/>
                    </mxGeometry>
                </mxCell>
                <mxCell id="47" value="" style="endArrow=none;html=1;exitX=0.5;exitY=0;exitDx=0;exitDy=0;entryX=0.143;entryY=1.006;entryDx=0;entryDy=0;entryPerimeter=0;" edge="1" parent="1" source="30" target="22">
                    <mxGeometry width="50" height="50" relative="1" as="geometry">
                        <mxPoint x="105" y="180" as="sourcePoint"/>
                        <mxPoint x="155" y="130" as="targetPoint"/>
                    </mxGeometry>
                </mxCell>
                <mxCell id="48" value="" style="endArrow=none;html=1;exitX=0.5;exitY=0;exitDx=0;exitDy=0;entryX=0.318;entryY=1.006;entryDx=0;entryDy=0;entryPerimeter=0;" edge="1" parent="1" source="31" target="22">
                    <mxGeometry width="50" height="50" relative="1" as="geometry">
                        <mxPoint x="85" y="170" as="sourcePoint"/>
                        <mxPoint x="110.01999999999998" y="120.42000000000002" as="targetPoint"/>
                    </mxGeometry>
                </mxCell>
                <mxCell id="49" value="" style="endArrow=none;html=1;exitX=0.5;exitY=0;exitDx=0;exitDy=0;entryX=0.667;entryY=1.002;entryDx=0;entryDy=0;entryPerimeter=0;" edge="1" parent="1" source="32" target="22">
                    <mxGeometry width="50" height="50" relative="1" as="geometry">
                        <mxPoint x="135" y="170" as="sourcePoint"/>
                        <mxPoint x="134.51999999999998" y="120.42000000000002" as="targetPoint"/>
                    </mxGeometry>
                </mxCell>
                <mxCell id="50" value="" style="endArrow=none;html=1;entryX=0.907;entryY=1.002;entryDx=0;entryDy=0;entryPerimeter=0;" edge="1" parent="1" target="22">
                    <mxGeometry width="50" height="50" relative="1" as="geometry">
                        <mxPoint x="225" y="160" as="sourcePoint"/>
                        <mxPoint x="183.38" y="120.14000000000004" as="targetPoint"/>
                    </mxGeometry>
                </mxCell>
                <mxCell id="51" value="" style="endArrow=none;html=1;exitX=0.994;exitY=0.713;exitDx=0;exitDy=0;exitPerimeter=0;entryX=0;entryY=0.5;entryDx=0;entryDy=0;" edge="1" parent="1" source="22" target="34">
                    <mxGeometry width="50" height="50" relative="1" as="geometry">
                        <mxPoint x="220" y="200" as="sourcePoint"/>
                        <mxPoint x="270" y="150" as="targetPoint"/>
                    </mxGeometry>
                </mxCell>
                <mxCell id="52" value="" style="endArrow=none;html=1;exitX=0.994;exitY=0.713;exitDx=0;exitDy=0;exitPerimeter=0;entryX=0;entryY=0.5;entryDx=0;entryDy=0;" edge="1" parent="1">
                    <mxGeometry width="50" height="50" relative="1" as="geometry">
                        <mxPoint x="219.15999999999997" y="49.83000000000003" as="sourcePoint"/>
                        <mxPoint x="270" y="49.92" as="targetPoint"/>
                    </mxGeometry>
                </mxCell>
                <mxCell id="53" value="&lt;span style=&quot;font-size: 10px&quot;&gt;Camera&lt;/span&gt;" style="rounded=0;whiteSpace=wrap;html=1;" vertex="1" parent="1">
                    <mxGeometry x="320" y="40" width="50" height="20" as="geometry"/>
                </mxCell>
                <mxCell id="54" value="&lt;span style=&quot;font-size: 10px&quot;&gt;LIDAR&lt;/span&gt;" style="rounded=0;whiteSpace=wrap;html=1;" vertex="1" parent="1">
                    <mxGeometry x="320" y="80" width="50" height="20" as="geometry"/>
                </mxCell>
                <mxCell id="55" value="" style="endArrow=none;html=1;exitX=0.994;exitY=0.713;exitDx=0;exitDy=0;exitPerimeter=0;" edge="1" parent="1">
                    <mxGeometry width="50" height="50" relative="1" as="geometry">
                        <mxPoint x="290" y="49.8300000000001" as="sourcePoint"/>
                        <mxPoint x="320" y="50" as="targetPoint"/>
                    </mxGeometry>
                </mxCell>
                <mxCell id="56" value="" style="endArrow=none;html=1;exitX=0.994;exitY=0.713;exitDx=0;exitDy=0;exitPerimeter=0;" edge="1" parent="1">
                    <mxGeometry width="50" height="50" relative="1" as="geometry">
                        <mxPoint x="290" y="89.8300000000001" as="sourcePoint"/>
                        <mxPoint x="320" y="90" as="targetPoint"/>
                    </mxGeometry>
                </mxCell>
                <mxCell id="57" value="Base" style="rounded=0;whiteSpace=wrap;html=1;" vertex="1" parent="1">
                    <mxGeometry x="115" y="280" width="80" height="100" as="geometry"/>
                </mxCell>
                <mxCell id="58" value="w" style="rounded=1;whiteSpace=wrap;html=1;fontSize=10;" vertex="1" parent="1">
                    <mxGeometry x="105" y="290" width="15" height="30" as="geometry"/>
                </mxCell>
                <mxCell id="59" value="w" style="rounded=1;whiteSpace=wrap;html=1;fontSize=10;" vertex="1" parent="1">
                    <mxGeometry x="105" y="340" width="15" height="30" as="geometry"/>
                </mxCell>
                <mxCell id="60" value="w" style="rounded=1;whiteSpace=wrap;html=1;fontSize=10;" vertex="1" parent="1">
                    <mxGeometry x="190" y="290" width="15" height="30" as="geometry"/>
                </mxCell>
                <mxCell id="61" value="w" style="rounded=1;whiteSpace=wrap;html=1;fontSize=10;" vertex="1" parent="1">
                    <mxGeometry x="190" y="340" width="15" height="30" as="geometry"/>
                </mxCell>
                <mxCell id="62" value="L" style="rounded=0;whiteSpace=wrap;html=1;fontSize=10;" vertex="1" parent="1">
                    <mxGeometry x="140" y="300" width="30" height="20" as="geometry"/>
                </mxCell>
            </root>
        </mxGraphModel>
    </diagram>
</mxfile>